<svg width="201" height="60" viewBox="0 0 201 60" fill="none" xmlns="http://www.w3.org/2000/svg">
<g clip-path="url(#clip0_13_543)">
<mask id="mask0_13_543" style="mask-type:luminance" maskUnits="userSpaceOnUse" x="0" y="0" width="201" height="60">
<path d="M200.643 0H0V59.97H200.643V0Z" fill="white"/>
</mask>
<g mask="url(#mask0_13_543)">
<path d="M193.212 0H7.43126C3.32708 0 0 3.35619 0 7.49628V52.4738C0 56.6138 3.32708 59.97 7.43126 59.97H193.212C197.316 59.97 200.643 56.6138 200.643 52.4738V7.49628C200.643 3.35619 197.316 0 193.212 0Z" fill="black"/>
<path d="M193.212 1.1994C194.867 1.1994 196.456 1.86281 197.626 3.0437C198.797 4.22459 199.454 5.82622 199.454 7.49628V52.4738C199.454 54.1438 198.797 55.7455 197.626 56.9263C196.456 58.1072 194.867 58.7706 193.212 58.7706H7.43126C5.77569 58.7706 4.18795 58.1072 3.0173 56.9263C1.84666 55.7455 1.189 54.1438 1.189 52.4738V7.49628C1.189 5.82622 1.84666 4.22459 3.0173 3.0437C4.18795 1.86281 5.77569 1.1994 7.43126 1.1994H193.212ZM193.212 0H7.43126C5.46035 0 3.57018 0.789779 2.17656 2.1956C0.782929 3.60142 0 5.50812 0 7.49628V52.4738C0 54.4619 0.782929 56.3686 2.17656 57.7744C3.57018 59.1802 5.46035 59.97 7.43126 59.97H193.212C195.183 59.97 197.073 59.1802 198.467 57.7744C199.86 56.3686 200.643 54.4619 200.643 52.4738V7.49628C200.643 5.50812 199.86 3.60142 198.467 2.1956C197.073 0.789779 195.183 0 193.212 0Z" fill="#A6A6A6"/>
<path d="M70.478 15.3524C70.5026 15.9022 70.4165 16.4513 70.2243 16.9666C70.0329 17.4819 69.7403 17.9528 69.3636 18.3509C68.9411 18.7906 68.4318 19.1355 67.8681 19.3628C67.3046 19.5902 66.6999 19.6949 66.0935 19.6702C65.4837 19.6839 64.8775 19.5713 64.3126 19.3392C63.7476 19.1071 63.2358 18.7605 62.8089 18.3209C61.9429 17.4273 61.458 16.2273 61.458 14.9776C61.458 13.7279 61.9429 12.5279 62.8089 11.6342C63.4711 10.9816 64.3096 10.5409 65.2193 10.3675C66.1289 10.1942 67.0691 10.2958 67.9217 10.6597C68.4577 10.8819 68.9356 11.2257 69.3185 11.6642L68.5309 12.4588C68.2358 12.1002 67.8618 11.8159 67.4388 11.6285C67.0157 11.4411 66.5551 11.3558 66.0935 11.3794C65.511 11.3835 64.9382 11.5314 64.4254 11.8103C63.9127 12.0892 63.4754 12.4906 63.1518 12.9793C62.8283 13.468 62.6283 14.0293 62.5695 14.6139C62.5106 15.1986 62.5946 15.7889 62.8141 16.3333C63.0337 16.8777 63.382 17.3595 63.8288 17.7367C64.2755 18.1139 64.8071 18.375 65.3769 18.4971C65.9468 18.6193 66.5376 18.5987 67.0978 18.4373C67.658 18.2759 68.1704 17.9786 68.5904 17.5713C69.0443 17.0692 69.3075 16.4213 69.3335 15.7422H66.0935V14.6627H70.4185C70.4527 14.8912 70.4725 15.1215 70.478 15.3524Z" fill="white" stroke="white" stroke-width="0.411304" stroke-miterlimit="10"/>
<path d="M77.2843 11.6041H73.2718V14.4527H76.9281V15.5321H73.2718V18.3807H77.2843V19.4901H72.1123V10.4946H77.2843V11.6041Z" fill="white" stroke="white" stroke-width="0.411304" stroke-miterlimit="10"/>
<path d="M82.1598 19.4901H81.0153V11.6041H78.5186V10.4946H84.7161V11.6041H82.1598V19.4901Z" fill="white" stroke="white" stroke-width="0.411304" stroke-miterlimit="10"/>
<path d="M89.0854 19.4901V10.4946H90.2299V19.4901H89.0854Z" fill="white" stroke="white" stroke-width="0.411304" stroke-miterlimit="10"/>
<path d="M95.3131 19.4901H94.1686V11.6041H91.6719V10.4946H97.7949V11.6041H95.3131V19.4901Z" fill="white" stroke="white" stroke-width="0.411304" stroke-miterlimit="10"/>
<path d="M109.403 18.3208C108.973 18.7542 108.463 19.098 107.903 19.3325C107.341 19.5671 106.74 19.6879 106.133 19.6879C105.525 19.6879 104.924 19.5671 104.363 19.3325C103.802 19.098 103.292 18.7542 102.863 18.3208C102.023 17.4199 101.555 16.2294 101.555 14.9925C101.555 13.7555 102.023 12.5651 102.863 11.6641C103.283 11.2185 103.791 10.8669 104.354 10.6319C104.918 10.3969 105.523 10.2837 106.133 10.2999C106.741 10.2901 107.345 10.4061 107.907 10.6407C108.47 10.8754 108.979 11.2237 109.403 11.6641C109.83 12.1027 110.166 12.6231 110.39 13.1947C110.615 13.7664 110.723 14.3777 110.71 14.9925C110.73 15.608 110.624 16.221 110.399 16.7936C110.174 17.3661 109.835 17.8859 109.403 18.3208ZM103.71 17.5712C104.027 17.8948 104.404 18.1519 104.82 18.3272C105.236 18.5026 105.682 18.593 106.133 18.593C106.583 18.593 107.03 18.5026 107.445 18.3272C107.862 18.1519 108.238 17.8948 108.556 17.5712C109.197 16.8682 109.552 15.9478 109.552 14.9925C109.552 14.0372 109.197 13.1167 108.556 12.4138C108.238 12.0901 107.862 11.8331 107.445 11.6577C107.03 11.4823 106.583 11.392 106.133 11.392C105.682 11.392 105.236 11.4823 104.82 11.6577C104.404 11.8331 104.027 12.0901 103.71 12.4138C103.069 13.1167 102.713 14.0372 102.713 14.9925C102.713 15.9478 103.069 16.8682 103.71 17.5712Z" fill="white" stroke="white" stroke-width="0.411304" stroke-miterlimit="10"/>
<path d="M112.33 19.4901V10.4946H113.712L118.052 17.4961V15.757V10.4946H119.197V19.4901H118.008L113.475 12.1588V13.883V19.4901H112.33Z" fill="white" stroke="white" stroke-width="0.411304" stroke-miterlimit="10"/>
<path d="M101.272 32.6087C100.021 32.6116 98.7975 32.9891 97.7576 33.6934C96.7177 34.3976 95.9089 35.397 95.4324 36.5652C94.9559 37.7334 94.8335 39.0178 95.0803 40.2562C95.3278 41.4945 95.9336 42.6311 96.821 43.5222C97.7084 44.4133 98.8385 45.0189 100.067 45.2625C101.296 45.506 102.569 45.3765 103.724 44.8903C104.88 44.4042 105.867 43.5833 106.56 42.5313C107.253 41.4794 107.622 40.2437 107.619 38.9805C107.631 38.1378 107.475 37.3013 107.16 36.5207C106.845 35.7402 106.377 35.0316 105.785 34.437C105.193 33.8425 104.488 33.3743 103.713 33.0601C102.938 32.746 102.108 32.5925 101.272 32.6087ZM101.272 42.8485C100.505 42.9027 99.7389 42.7227 99.0743 42.3319C98.4098 41.9411 97.8765 41.3576 97.545 40.6573C97.2134 39.957 97.0985 39.1722 97.2148 38.405C97.331 37.6378 97.6735 36.9236 98.1972 36.3554C98.7216 35.7871 99.4032 35.3909 100.153 35.2185C100.903 35.0461 101.687 35.1053 102.404 35.3884C103.12 35.6716 103.736 36.1655 104.17 36.8061C104.605 37.4467 104.838 38.2043 104.84 38.9805C104.864 39.4722 104.79 39.9639 104.622 40.4264C104.455 40.8889 104.197 41.3129 103.865 41.6734C103.533 42.0339 103.132 42.3236 102.687 42.5254C102.241 42.7273 101.761 42.8371 101.272 42.8485ZM87.4211 32.6087C86.1686 32.6116 84.9456 32.9891 83.9057 33.6934C82.8665 34.3976 82.057 35.397 81.5805 36.5652C81.104 37.7334 80.9816 39.0178 81.2291 40.2562C81.4759 41.4945 82.0816 42.6311 82.9691 43.5222C83.8565 44.4133 84.9866 45.0189 86.2151 45.2625C87.4437 45.506 88.7167 45.3765 89.8721 44.8903C91.0282 44.4042 92.0147 43.5833 92.708 42.5313C93.4012 41.4794 93.7697 40.2437 93.767 38.9805C93.7793 38.1378 93.6234 37.3013 93.3083 36.5207C92.9931 35.7402 92.5254 35.0316 91.9334 34.437C91.3413 33.8425 90.6364 33.3743 89.8612 33.0601C89.0859 32.746 88.2559 32.5925 87.4211 32.6087ZM87.4211 42.8485C86.6534 42.9027 85.8877 42.7227 85.2224 42.3319C84.5579 41.9411 84.0253 41.3576 83.6931 40.6573C83.3615 39.957 83.2466 39.1722 83.3628 38.405C83.4791 37.6378 83.8216 36.9236 84.346 36.3554C84.8697 35.7871 85.5513 35.3909 86.3013 35.2185C87.0513 35.0461 87.8354 35.1053 88.5519 35.3884C89.2684 35.6716 89.8837 36.1655 90.3185 36.8061C90.7527 37.4467 90.9858 38.2043 90.9879 38.9805C91.0118 39.4722 90.938 39.9639 90.7704 40.4264C90.6029 40.8889 90.3452 41.3129 90.0129 41.6734C89.6807 42.0339 89.28 42.3236 88.835 42.5254C88.3892 42.7273 87.9086 42.8371 87.4211 42.8485ZM70.9535 34.5727V37.2714H77.3739C77.2734 38.5424 76.749 39.7418 75.8876 40.6747C75.2435 41.3366 74.4689 41.8547 73.6137 42.1956C72.7584 42.5365 71.8423 42.6926 70.9234 42.6536C69.0317 42.6536 67.2169 41.8954 65.879 40.5458C64.5411 39.1962 63.7895 37.3658 63.7895 35.4572C63.7895 33.5487 64.5411 31.7182 65.879 30.3686C67.2169 29.019 69.0317 28.2609 70.9234 28.2609C72.7372 28.2336 74.4888 28.9285 75.7987 30.1949L77.6856 28.2908C76.8003 27.407 75.7481 26.7105 74.592 26.2419C73.4359 25.7734 72.1991 25.5423 70.9535 25.5622C69.632 25.5103 68.3138 25.728 67.078 26.2023C65.8421 26.6766 64.7139 27.3977 63.7609 28.3223C62.8079 29.247 62.0497 30.3562 61.5319 31.5835C61.014 32.8108 60.7471 34.1309 60.7471 35.4647C60.7471 36.7986 61.014 38.1187 61.5319 39.346C62.0497 40.5733 62.8079 41.6825 63.7609 42.6071C64.7139 43.5318 65.8421 44.2529 67.078 44.7271C68.3138 45.2014 69.632 45.4191 70.9535 45.3673C72.2244 45.4185 73.492 45.1979 74.6734 44.7198C75.8541 44.2418 76.9213 43.5172 77.8046 42.5937C79.3654 40.8642 80.1974 38.5894 80.1236 36.2518C80.1284 35.6892 80.084 35.1272 79.9896 34.5727H70.9535ZM138.295 36.6716C137.908 35.5213 137.182 34.5169 136.216 33.7914C135.25 33.0658 134.089 32.6534 132.885 32.6087C132.072 32.6071 131.267 32.7737 130.521 33.0983C129.774 33.4227 129.101 33.8983 128.544 34.4955C127.987 35.0927 127.558 35.7989 127.281 36.5703C127.005 37.3417 126.89 38.162 126.94 38.9805C126.927 40.3491 127.354 41.6851 128.156 42.7889C128.958 43.8929 130.093 44.7054 131.39 45.1051C132.688 45.5049 134.079 45.4705 135.356 45.007C136.632 44.5436 137.726 43.6759 138.473 42.5337L136.318 41.0345C135.997 41.5746 135.541 42.0207 134.997 42.3283C134.452 42.636 133.836 42.7947 133.212 42.7886C132.568 42.8154 131.931 42.6451 131.384 42.2998C130.838 41.9547 130.408 41.4509 130.151 40.8545L138.607 37.3313L138.295 36.6716ZM129.675 38.8006C129.645 38.3349 129.707 37.8678 129.858 37.4267C130.009 36.9856 130.246 36.5793 130.555 36.2316C130.863 35.884 131.238 35.602 131.655 35.402C132.074 35.2021 132.527 35.0884 132.989 35.0674C133.468 35.038 133.945 35.1517 134.36 35.3944C134.775 35.6371 135.11 35.9979 135.323 36.4318L129.675 38.8006ZM122.808 44.9775H125.588V26.2369H122.808V44.9775ZM118.26 34.0329H118.156C117.741 33.556 117.229 33.1751 116.654 32.9163C116.079 32.6576 115.457 32.5271 114.827 32.5337C113.203 32.6131 111.671 33.32 110.55 34.5076C109.428 35.6952 108.802 37.2727 108.802 38.913C108.802 40.5534 109.428 42.1308 110.55 43.3185C111.671 44.5061 113.203 45.2129 114.827 45.2923C115.457 45.3051 116.083 45.1773 116.658 44.9181C117.233 44.6589 117.745 44.2748 118.156 43.7931H118.26V44.7076C118.26 47.1514 116.967 48.4558 114.886 48.4558C114.192 48.4403 113.517 48.2169 112.947 47.8138C112.379 47.4107 111.942 46.8462 111.692 46.1919L109.284 47.1964C109.729 48.3242 110.503 49.2891 111.503 49.9638C112.504 50.6383 113.683 50.9908 114.886 50.9745C118.141 50.9745 120.832 49.0405 120.832 44.3328V32.9835H118.26V34.0329ZM115.065 42.8485C114.091 42.7873 113.177 42.3539 112.509 41.6367C111.841 40.9194 111.469 39.9722 111.469 38.988C111.469 38.0038 111.841 37.0566 112.509 36.3393C113.177 35.622 114.091 35.1887 115.065 35.1274C115.541 35.1481 116.008 35.2652 116.438 35.4717C116.868 35.6782 117.253 35.9698 117.569 36.3293C117.885 36.6888 118.126 37.1088 118.278 37.5642C118.431 38.0197 118.49 38.5013 118.454 38.9805C118.494 39.4613 118.437 39.9454 118.288 40.4035C118.137 40.8616 117.897 41.2842 117.579 41.6458C117.263 42.0074 116.877 42.3004 116.444 42.5071C116.012 42.7138 115.543 42.83 115.065 42.8485ZM151.315 26.2369H144.656V44.9775H147.435V37.871H151.315C152.107 37.9285 152.902 37.8206 153.651 37.5543C154.4 37.288 155.086 36.8688 155.667 36.3231C156.249 35.7773 156.713 35.1165 157.03 34.382C157.347 33.6476 157.511 32.855 157.511 32.054C157.511 31.2529 157.347 30.4604 157.03 29.7258C156.713 28.9914 156.249 28.3306 155.667 27.7849C155.086 27.2391 154.4 26.8199 153.651 26.5536C152.902 26.2873 152.107 26.1794 151.315 26.2369ZM151.315 35.2324H147.435V28.8456H151.374C151.792 28.8456 152.205 28.9285 152.591 29.0898C152.977 29.251 153.328 29.4874 153.623 29.7853C153.919 30.0832 154.152 30.4369 154.312 30.8261C154.472 31.2154 154.554 31.6326 154.554 32.054C154.554 32.4753 154.472 32.8925 154.312 33.2818C154.152 33.671 153.919 34.0247 153.623 34.3226C153.328 34.6205 152.977 34.8569 152.591 35.0181C152.205 35.1794 151.792 35.2623 151.374 35.2623L151.315 35.2324ZM168.466 32.5487C167.454 32.4858 166.446 32.7234 165.566 33.2324C164.686 33.7414 163.974 34.4992 163.517 35.4123L165.969 36.4467C166.217 35.9961 166.588 35.6274 167.04 35.3854C167.491 35.1432 168.002 35.038 168.51 35.0825C168.863 35.0409 169.221 35.0706 169.562 35.1699C169.904 35.2691 170.222 35.436 170.498 35.6607C170.775 35.8854 171.004 36.1634 171.174 36.4786C171.343 36.7937 171.448 37.1396 171.483 37.4963V37.6761C170.589 37.2023 169.595 36.9552 168.585 36.9565C165.939 36.9565 163.234 38.4558 163.234 41.1844C163.26 41.7644 163.402 42.3331 163.65 42.8569C163.898 43.3806 164.249 43.8487 164.68 44.2333C165.111 44.6178 165.614 44.9111 166.16 45.0956C166.706 45.2801 167.282 45.3521 167.857 45.3074C168.554 45.3462 169.249 45.1974 169.871 44.8759C170.492 44.5545 171.018 44.0721 171.394 43.4782H171.483V44.9775H174.158V37.7661C174.158 34.4827 171.691 32.5787 168.525 32.5787L168.466 32.5487ZM168.124 42.8186C167.217 42.8186 165.954 42.3538 165.954 41.2294C165.954 39.7301 167.529 39.2204 168.927 39.2204C169.809 39.1984 170.682 39.4158 171.453 39.85C171.36 40.6642 170.977 41.4167 170.376 41.968C169.775 42.5194 168.996 42.8322 168.183 42.8485L168.124 42.8186ZM183.908 32.9835L180.728 41.1094H180.638L177.339 32.9835H174.366L179.316 44.3478L176.491 50.6596H179.39L187 32.9835H183.908ZM158.939 44.9775H161.704V26.2369H158.939V44.9775Z" fill="white"/>
<path d="M15.5164 11.3046C15.0267 11.8887 14.7768 12.6396 14.8179 13.4036V46.567C14.7673 47.3322 15.0184 48.0865 15.5164 48.6659L15.6205 48.7859L34.0351 30.2102V29.7604L15.6205 11.1997L15.5164 11.3046Z" fill="url(#paint0_linear_13_543)"/>
<path d="M40.1288 36.4019L34.0352 30.21V29.7602L40.1288 23.5684L40.2625 23.6583L47.56 27.8262C49.6408 29.0106 49.6408 30.9597 47.56 32.159L40.2923 36.327L40.1288 36.4019Z" fill="url(#paint1_linear_13_543)"/>
<path d="M40.3071 36.3117L34.0352 29.9849L15.5166 48.6655C15.9366 49.0426 16.4742 49.2596 17.0361 49.2787C17.598 49.2979 18.1489 49.118 18.5931 48.7705L40.3071 36.3117Z" fill="url(#paint2_linear_13_543)"/>
<path d="M40.3071 23.6584L18.5931 11.2146C18.1518 10.8622 17.6013 10.678 17.0386 10.6944C16.4759 10.7109 15.937 10.9269 15.5166 11.3046L34.0352 29.9852L40.3071 23.6584Z" fill="url(#paint3_linear_13_543)"/>
<path opacity="0.2" d="M40.1288 36.1768L18.5931 48.5456C18.165 48.8715 17.6432 49.0479 17.1069 49.0479C16.5705 49.0479 16.0488 48.8715 15.6207 48.5456L15.5166 48.6505L15.6207 48.7705C16.0488 49.0964 16.5705 49.2727 17.1069 49.2727C17.6432 49.2727 18.165 49.0964 18.5931 48.7705L40.3071 36.3117L40.1288 36.1768Z" fill="black"/>
<path opacity="0.12" d="M15.5165 48.4557C15.0391 47.861 14.8051 47.1048 14.8625 46.3418V46.5666C14.8119 47.3319 15.063 48.0862 15.561 48.6656L15.6651 48.5606L15.5165 48.4557Z" fill="black"/>
<path opacity="0.12" d="M47.5597 31.9339L40.1284 36.1767L40.2622 36.3117L47.5597 32.1438C47.9904 31.96 48.3641 31.6625 48.6413 31.2826C48.9186 30.9027 49.0892 30.4543 49.1351 29.9849C49.0422 30.4115 48.8512 30.8101 48.5775 31.1487C48.3039 31.4872 47.9552 31.7562 47.5597 31.9339Z" fill="black"/>
<path opacity="0.25" d="M18.5929 11.4242L47.5599 28.0359C47.9555 28.2136 48.3041 28.4826 48.5777 28.8211C48.8514 29.1596 49.0424 29.5583 49.1353 29.9849C49.0893 29.5154 48.9188 29.0672 48.6415 28.6872C48.3643 28.3072 47.9906 28.0098 47.5599 27.826L18.5929 11.2143C16.5271 10.0149 14.8179 11.0045 14.8179 13.4032V13.6281C14.8624 11.2293 16.5271 10.2398 18.5929 11.4242Z" fill="white"/>
</g>
</g>
<defs>
<linearGradient id="paint0_linear_13_543" x1="32.4002" y1="13.0587" x2="7.24373" y2="37.997" gradientUnits="userSpaceOnUse">
<stop stop-color="#00A0FF"/>
<stop offset="0.01" stop-color="#00A1FF"/>
<stop offset="0.26" stop-color="#00BEFF"/>
<stop offset="0.51" stop-color="#00D2FF"/>
<stop offset="0.76" stop-color="#00DFFF"/>
<stop offset="1" stop-color="#00E3FF"/>
</linearGradient>
<linearGradient id="paint1_linear_13_543" x1="50.2799" y1="29.9851" x2="14.3276" y2="29.9851" gradientUnits="userSpaceOnUse">
<stop stop-color="#FFE000"/>
<stop offset="0.41" stop-color="#FFBD00"/>
<stop offset="0.78" stop-color="#FFA500"/>
<stop offset="1" stop-color="#FF9C00"/>
</linearGradient>
<linearGradient id="paint2_linear_13_543" x1="36.9037" y1="33.4331" x2="2.78216" y2="67.2438" gradientUnits="userSpaceOnUse">
<stop stop-color="#FF3A44"/>
<stop offset="1" stop-color="#C31162"/>
</linearGradient>
<linearGradient id="paint3_linear_13_543" x1="10.8498" y1="0.270065" x2="26.0815" y2="15.3697" gradientUnits="userSpaceOnUse">
<stop stop-color="#32A071"/>
<stop offset="0.07" stop-color="#2DA771"/>
<stop offset="0.48" stop-color="#15CF74"/>
<stop offset="0.8" stop-color="#06E775"/>
<stop offset="1" stop-color="#00F076"/>
</linearGradient>
<clipPath id="clip0_13_543">
<rect width="201" height="60" fill="white"/>
</clipPath>
</defs>
</svg>
