<svg width="177" height="60" viewBox="0 0 177 60" fill="none" xmlns="http://www.w3.org/2000/svg">
<g clip-path="url(#clip0_13_566)">
<mask id="mask0_13_566" style="mask-type:luminance" maskUnits="userSpaceOnUse" x="0" y="0" width="177" height="60">
<path d="M176.56 0H0.323242V59.97H176.56V0Z" fill="white"/>
</mask>
<g mask="url(#mask0_13_566)">
<path d="M162.525 -0.000293379H14.3655C13.8255 -0.000293379 13.2919 -0.000293379 12.7533 0.00270512C12.3024 0.00570362 11.8551 0.0144143 11.3999 0.0217456C10.4109 0.0335924 9.4243 0.12216 8.44858 0.286678C7.47426 0.454778 6.53044 0.771697 5.64906 1.22671C4.76876 1.68557 3.96441 2.28181 3.26518 2.99381C2.56228 3.70381 1.97636 4.52447 1.52995 5.42423C1.0823 6.32221 0.771903 7.28447 0.609473 8.27778C0.445498 9.26985 0.357261 10.2734 0.345555 11.2793C0.331887 11.739 0.330444 12.2001 0.323242 12.6599V47.3139C0.330444 47.7794 0.331887 48.2305 0.345555 48.6961C0.357265 49.702 0.445501 50.7054 0.609473 51.6974C0.771457 52.6914 1.08188 53.6542 1.52995 54.5525C1.97616 55.4494 2.56216 56.2667 3.26518 56.9727C3.96176 57.6879 4.76663 58.2845 5.64906 58.7399C6.53043 59.1961 7.47413 59.515 8.44858 59.6856C9.42451 59.8488 10.411 59.9374 11.3999 59.9507C11.8551 59.9609 12.3024 59.9667 12.7533 59.9667C13.2919 59.9697 13.8255 59.9697 14.3655 59.9697H162.525C163.054 59.9697 163.592 59.9697 164.122 59.9667C164.57 59.9667 165.03 59.9609 165.48 59.9507C166.467 59.9381 167.451 59.8495 168.425 59.6856C169.403 59.5137 170.35 59.195 171.235 58.7399C172.117 58.2843 172.921 57.6876 173.617 56.9727C174.318 56.2639 174.905 55.4472 175.357 54.5525C175.802 53.6535 176.109 52.6907 176.269 51.6974C176.433 50.7053 176.525 49.7021 176.542 48.6961C176.548 48.2305 176.548 47.7794 176.548 47.3139C176.56 46.7693 176.56 46.2276 176.56 45.6741V14.2967C176.56 13.7477 176.56 13.2031 176.548 12.6599C176.548 12.2001 176.548 11.739 176.542 11.2792C176.525 10.2732 176.433 9.26992 176.269 8.27771C176.109 7.28502 175.802 6.3228 175.357 5.42417C174.448 3.62069 173.007 2.15267 171.235 1.22657C170.35 0.772669 169.403 0.45584 168.425 0.286543C167.451 0.1213 166.467 0.0327018 165.48 0.0215357C165.03 0.0142194 164.57 0.00543376 164.122 0.00251022C163.592 -0.000488282 163.054 -0.000293379 162.525 -0.000293379Z" fill="#A6A6A6"/>
<path d="M12.7604 58.6578C12.3116 58.6578 11.8737 58.652 11.4285 58.6418C10.5063 58.6295 9.58618 58.5478 8.67577 58.3973C7.82685 58.2484 7.00448 57.9716 6.23578 57.5758C5.47413 57.1833 4.77944 56.6687 4.17833 56.0517C3.56853 55.4419 3.06083 54.7346 2.67537 53.958C2.28566 53.1763 2.01596 52.3384 1.87566 51.4734C1.72415 50.5441 1.64218 49.6044 1.63044 48.6624C1.62111 48.3462 1.60889 47.2934 1.60889 47.2934V12.6598C1.60889 12.6598 1.62191 11.6233 1.63052 11.3187C1.64175 10.3782 1.72325 9.43996 1.87431 8.51203C2.01487 7.64472 2.28478 6.8044 2.67469 6.02011C3.05873 5.24397 3.56361 4.5362 4.16975 3.92423C4.7752 3.30645 5.47211 2.78919 6.23506 2.3913C7.00198 1.99682 7.8228 1.72192 8.66996 1.57579C9.58341 1.42372 10.5067 1.3415 11.4322 1.32983L12.7611 1.31152H164.114L165.459 1.33056C166.376 1.34165 167.291 1.42314 168.196 1.57432C169.052 1.72228 169.882 1.9991 170.657 2.39569C172.185 3.19756 173.429 4.46618 174.213 6.02377C174.597 6.80264 174.863 7.6361 175.002 8.49589C175.154 9.43148 175.24 10.3771 175.258 11.3253C175.262 11.7499 175.262 12.206 175.262 12.6598C175.274 13.2221 175.274 13.7572 175.274 14.2967V45.674C175.274 46.2187 175.274 46.7502 175.262 47.286C175.262 47.7736 175.262 48.2202 175.256 48.6799C175.239 49.6112 175.155 50.54 175.004 51.4587C174.867 52.3299 174.599 53.1744 174.209 53.9625C173.822 54.7307 173.316 55.4319 172.714 56.04C172.112 56.6604 171.416 57.178 170.652 57.573C169.879 57.9717 169.051 58.2497 168.196 58.3973C167.286 58.5486 166.366 58.6304 165.443 58.6418C165.012 58.652 164.56 58.6578 164.122 58.6578L162.525 58.6609L12.7604 58.6578Z" fill="black"/>
<path d="M36.8017 30.4355C36.8175 29.1841 37.144 27.9571 37.7509 26.8688C38.3577 25.7804 39.225 24.8659 40.2723 24.2105C39.607 23.2432 38.7293 22.4472 37.709 21.8857C36.6886 21.3241 35.5536 21.0125 34.3943 20.9756C31.9211 20.7113 29.5236 22.4821 28.2633 22.4821C26.9787 22.4821 25.0383 21.0018 22.9489 21.0456C21.5974 21.09 20.2802 21.4901 19.1257 22.2069C17.9713 22.9235 17.0189 23.9325 16.3613 25.1353C13.5131 30.1555 15.6376 37.5333 18.366 41.5913C19.7312 43.5782 21.3266 45.7978 23.4141 45.7191C25.4569 45.6329 26.2199 44.3931 28.6858 44.3931C31.1287 44.3931 31.8445 45.7191 33.9744 45.6691C36.1664 45.6329 37.5475 43.6732 38.8647 41.6673C39.8455 40.2515 40.6003 38.6867 41.101 37.0309C39.8275 36.4826 38.7407 35.5648 37.9762 34.392C37.2116 33.2191 36.8032 31.8431 36.8017 30.4355Z" fill="white"/>
<path d="M32.779 18.307C33.9741 16.8465 34.5629 14.9692 34.4204 13.0737C32.5944 13.269 30.9077 14.1574 29.6964 15.5619C29.1041 16.2481 28.6505 17.0464 28.3615 17.911C28.0725 18.7758 27.9537 19.69 28.012 20.6015C28.9253 20.611 29.8289 20.4095 30.6546 20.0121C31.4803 19.6147 32.2067 19.0317 32.779 18.307Z" fill="white"/>
<path d="M62.6243 40.689H55.6532L53.979 45.7212H51.0264L57.6293 27.1035H60.6971L67.3 45.7212H64.297L62.6243 40.689ZM56.3751 38.367H61.9009L59.177 30.2001H59.1007L56.3751 38.367Z" fill="white"/>
<path d="M81.5598 38.9351C81.5598 43.1532 79.3425 45.8633 75.9957 45.8633C75.1479 45.9084 74.3048 45.7096 73.5623 45.2896C72.8205 44.8696 72.2098 44.2454 71.7998 43.4885H71.7369V50.2116H68.9995V32.1475H71.6491V34.4052H71.6991C72.1281 33.6518 72.7489 33.0308 73.4968 32.6083C74.244 32.1857 75.0905 31.9774 75.9451 32.0054C79.329 32.0054 81.5598 34.7287 81.5598 38.9351ZM78.7467 38.9351C78.7467 36.1869 77.3516 34.3803 75.2229 34.3803C73.132 34.3803 71.7254 36.225 71.7254 38.9351C71.7254 41.6701 73.132 43.5016 75.2229 43.5016C77.3516 43.5016 78.7467 41.7081 78.7467 38.9351Z" fill="white"/>
<path d="M96.236 38.9351C96.236 43.1532 94.0181 45.8633 90.6713 45.8633C89.8235 45.9084 88.9804 45.7096 88.2386 45.2896C87.4961 44.8696 86.8854 44.2454 86.476 43.4885H86.4125V50.2116H83.6758V32.1474H86.3247V34.4051H86.3754C86.8037 33.6518 87.4245 33.0308 88.1724 32.6083C88.9202 32.1857 89.7661 31.9774 90.6207 32.0054C94.0053 32.0054 96.236 34.7287 96.236 38.9351ZM93.4229 38.9351C93.4229 36.1869 92.0272 34.3803 89.8992 34.3803C87.8076 34.3803 86.401 36.225 86.401 38.9351C86.401 41.6701 87.8076 43.5016 89.8992 43.5016C92.0272 43.5016 93.4229 41.7081 93.4229 38.9351Z" fill="white"/>
<path d="M105.935 40.5337C106.139 42.38 107.9 43.5922 110.308 43.5922C112.615 43.5922 114.275 42.3799 114.275 40.7152C114.275 39.2701 113.273 38.4049 110.904 37.8119L108.533 37.2306C105.175 36.4049 103.615 34.8061 103.615 32.2117C103.615 28.9994 106.366 26.793 110.271 26.793C114.135 26.793 116.784 28.9994 116.874 32.2117H114.11C113.945 30.3537 112.436 29.2322 110.231 29.2322C108.027 29.2322 106.518 30.3669 106.518 32.0184C106.518 33.3346 107.482 34.1092 109.839 34.7021L111.854 35.2057C115.606 36.109 117.165 37.6435 117.165 40.3667C117.165 43.8498 114.44 46.0313 110.105 46.0313C106.049 46.0313 103.311 43.901 103.134 40.5336L105.935 40.5337Z" fill="white"/>
<path d="M123.072 28.9351V32.1473H125.608V34.3537H123.072V41.8368C123.072 42.9993 123.58 43.5411 124.695 43.5411C124.995 43.5357 125.296 43.5142 125.595 43.4766V45.6698C125.094 45.7651 124.584 45.8083 124.074 45.7986C121.375 45.7986 120.322 44.7664 120.322 42.134V34.3537H118.383V32.1473H120.322V28.9351H123.072Z" fill="white"/>
<path d="M127.076 38.935C127.076 34.6642 129.547 31.9805 133.4 31.9805C137.267 31.9805 139.726 34.6641 139.726 38.935C139.726 43.2175 137.279 45.8895 133.4 45.8895C129.522 45.8895 127.076 43.2175 127.076 38.935ZM136.937 38.935C136.937 36.0053 135.618 34.2762 133.4 34.2762C131.182 34.2762 129.865 36.0185 129.865 38.935C129.865 41.8764 131.182 43.5923 133.4 43.5923C135.618 43.5923 136.937 41.8764 136.937 38.935Z" fill="white"/>
<path d="M141.982 32.1474H144.592V34.4577H144.656C144.833 33.7361 145.248 33.0985 145.832 32.6518C146.416 32.2052 147.133 31.9769 147.863 32.0053C148.179 32.0042 148.493 32.0391 148.801 32.1093V34.7154C148.403 34.5915 147.987 34.5347 147.571 34.547C147.174 34.5306 146.777 34.602 146.409 34.7562C146.041 34.9105 145.71 35.144 145.44 35.4406C145.169 35.7373 144.964 36.0902 144.84 36.475C144.715 36.8598 144.674 37.2674 144.719 37.67V45.7211H141.982V32.1474Z" fill="white"/>
<path d="M161.42 41.7344C161.052 44.1985 158.694 45.8895 155.678 45.8895C151.799 45.8895 149.392 43.2438 149.392 38.9994C149.392 34.7418 151.813 31.9805 155.563 31.9805C159.252 31.9805 161.572 34.5602 161.572 38.6758V39.6305H152.155V39.7988C152.111 40.2983 152.173 40.8016 152.335 41.2752C152.497 41.7487 152.756 42.1816 153.096 42.5452C153.435 42.9089 153.846 43.1949 154.303 43.3843C154.759 43.5736 155.249 43.662 155.742 43.6436C156.388 43.7052 157.038 43.5527 157.592 43.2087C158.147 42.8648 158.578 42.3476 158.821 41.7343L161.42 41.7344ZM152.167 37.6832H158.834C158.858 37.234 158.791 36.7845 158.637 36.3629C158.483 35.9413 158.245 35.5567 157.938 35.2332C157.631 34.9097 157.261 34.6543 156.852 34.4831C156.444 34.3118 156.005 34.2285 155.563 34.2381C155.118 34.2354 154.676 34.3226 154.264 34.4946C153.851 34.6666 153.476 34.9201 153.16 35.2404C152.844 35.5607 152.594 35.9414 152.424 36.3607C152.254 36.78 152.167 37.2294 152.167 37.6832Z" fill="white"/>
<path d="M56.0321 13.0897C56.6059 13.0478 57.1816 13.1361 57.7179 13.3481C58.2542 13.5602 58.7375 13.8907 59.1331 14.316C59.5286 14.7412 59.8266 15.2504 60.0053 15.8071C60.1842 16.3637 60.2394 16.9538 60.167 17.5348C60.167 20.3927 58.6497 22.0355 56.0321 22.0355H52.8579V13.0897H56.0321ZM54.2228 20.7704H55.8796C56.2896 20.7953 56.7 20.7269 57.0807 20.5701C57.4615 20.4132 57.8031 20.172 58.0807 19.8637C58.3584 19.5555 58.5649 19.1882 58.6855 18.7885C58.8061 18.3888 58.8375 17.9667 58.7777 17.553C58.8332 17.141 58.7985 16.7215 58.6761 16.3247C58.5537 15.928 58.3466 15.5636 58.0696 15.2579C57.7926 14.9521 57.4527 14.7125 57.074 14.5562C56.6954 14.4 56.2875 14.3308 55.8796 14.354H54.2228V20.7704Z" fill="white"/>
<path d="M61.7086 18.6571C61.667 18.2135 61.7168 17.7659 61.855 17.343C61.9933 16.9201 62.2167 16.5313 62.5112 16.2015C62.8056 15.8716 63.1646 15.6081 63.565 15.4278C63.9653 15.2475 64.3983 15.1543 64.8361 15.1543C65.2739 15.1543 65.7069 15.2475 66.1073 15.4278C66.5076 15.6081 66.8666 15.8716 67.1611 16.2015C67.4555 16.5313 67.6788 16.9201 67.8173 17.343C67.9551 17.7659 68.0051 18.2135 67.9639 18.6571C68.0058 19.1013 67.9565 19.5495 67.8187 19.9731C67.6808 20.3966 67.4578 20.7862 67.1632 21.1166C66.8687 21.4471 66.5095 21.7112 66.1087 21.8919C65.7079 22.0726 65.2744 22.166 64.8361 22.166C64.3978 22.166 63.9643 22.0726 63.5636 21.8919C63.1627 21.7112 62.8035 21.4471 62.509 21.1166C62.2145 20.7862 61.9911 20.3966 61.8533 19.9731C61.7155 19.5495 61.6661 19.1013 61.7086 18.6571ZM66.6174 18.6571C66.6174 17.1937 65.9716 16.338 64.8383 16.338C63.7006 16.338 63.0607 17.1937 63.0607 18.6571C63.0607 20.1322 63.7007 20.9814 64.8383 20.9814C65.9716 20.9814 66.6174 20.1264 66.6174 18.6571Z" fill="white"/>
<path d="M76.2785 22.0351H74.9206L73.5499 17.063H73.4465L72.0819 22.0351H70.7368L68.9087 15.2842H70.2362L71.4245 20.4356H71.5225L72.8858 15.2842H74.141L75.505 20.4356H75.6083L76.7906 15.2842H78.0992L76.2785 22.0351Z" fill="white"/>
<path d="M79.6367 15.2844H80.8967V16.3569H80.9946C81.1601 15.9717 81.4398 15.6488 81.7945 15.4332C82.1498 15.2176 82.5613 15.12 82.9734 15.1541C83.2963 15.1294 83.6199 15.179 83.9212 15.299C84.2225 15.4191 84.4934 15.6067 84.7143 15.8478C84.9346 16.089 85.0987 16.3775 85.1947 16.6921C85.2906 17.0066 85.3163 17.3392 85.269 17.665V22.0354H83.9597V17.9996C83.9597 16.9147 83.4969 16.3752 82.5288 16.3752C82.31 16.3648 82.0911 16.4027 81.8877 16.4865C81.6844 16.5701 81.5013 16.6976 81.3506 16.8601C81.2007 17.0226 81.0865 17.2163 81.0162 17.4279C80.9467 17.6395 80.9223 17.864 80.9453 18.086V22.0354H79.6367V15.2844Z" fill="white"/>
<path d="M87.3545 12.6489H88.6631V22.0353H87.3545V12.6489Z" fill="white"/>
<path d="M90.4821 18.6573C90.4402 18.2136 90.4902 17.766 90.6287 17.343C90.7665 16.9201 90.9901 16.5313 91.2847 16.2015C91.5792 15.8717 91.9387 15.6081 92.3386 15.4278C92.7392 15.2475 93.1722 15.1543 93.61 15.1543C94.0478 15.1543 94.4808 15.2475 94.8814 15.4278C95.2814 15.6081 95.6408 15.8717 95.9353 16.2015C96.2299 16.5313 96.4528 16.9201 96.5913 17.343C96.7298 17.766 96.7791 18.2136 96.7379 18.6573C96.7805 19.1014 96.7312 19.5497 96.5933 19.9732C96.4548 20.3968 96.2319 20.7863 95.9374 21.1168C95.6428 21.4472 95.2834 21.7113 94.8828 21.892C94.4815 22.0726 94.0485 22.166 93.61 22.166C93.1716 22.166 92.7378 22.0726 92.3372 21.892C91.9366 21.7113 91.5772 21.4472 91.2827 21.1168C90.9881 20.7863 90.7645 20.3968 90.6267 19.9732C90.4889 19.5497 90.4396 19.1014 90.4821 18.6573ZM95.3908 18.6573C95.3908 17.1939 94.745 16.3381 93.612 16.3381C92.4744 16.3381 91.8339 17.1939 91.8339 18.6573C91.8339 20.1324 92.4744 20.9815 93.612 20.9815C94.745 20.9815 95.3908 20.1265 95.3908 18.6573Z" fill="white"/>
<path d="M98.1157 20.1264C98.1157 18.9112 99.0048 18.2106 100.582 18.1111L102.379 18.0057V17.423C102.379 16.71 101.916 16.3073 101.021 16.3073C100.29 16.3073 99.7844 16.5804 99.6391 17.0577H98.3718C98.5055 15.8981 99.577 15.1543 101.081 15.1543C102.744 15.1543 103.682 15.9969 103.682 17.423V22.0356H102.422V21.0869H102.318C102.108 21.4272 101.813 21.7046 101.463 21.8908C101.113 22.0771 100.721 22.1654 100.327 22.1468C100.048 22.1764 99.7668 22.1461 99.5006 22.0581C99.2345 21.9701 98.9892 21.8263 98.7812 21.636C98.5724 21.4455 98.4062 21.2129 98.2914 20.9529C98.1765 20.6929 98.1171 20.4114 98.1157 20.1264ZM102.379 19.5495V18.9851L100.759 19.0906C99.8459 19.1528 99.4317 19.4691 99.4317 20.0642C99.4317 20.6718 99.9499 21.0254 100.662 21.0254C100.87 21.0468 101.081 21.0255 101.281 20.9624C101.481 20.8993 101.667 20.7957 101.828 20.6581C101.988 20.5204 102.119 20.3513 102.214 20.1608C102.309 19.9704 102.365 19.7625 102.379 19.5495Z" fill="white"/>
<path d="M105.402 18.6569C105.402 16.5237 106.479 15.1723 108.155 15.1723C108.569 15.1529 108.981 15.254 109.341 15.4637C109.701 15.6734 109.995 15.9831 110.189 16.3567H110.286V12.6489H111.595V22.0353H110.341V20.9687H110.237C110.029 21.3398 109.725 21.6457 109.357 21.8533C108.99 22.0609 108.575 22.1623 108.155 22.1466C106.468 22.1466 105.402 20.7953 105.402 18.6569ZM106.754 18.6569C106.754 20.0888 107.417 20.9504 108.526 20.9504C109.629 20.9504 110.311 20.0764 110.311 18.6628C110.311 17.2558 109.622 16.3692 108.526 16.3692C107.424 16.3692 106.754 17.2367 106.754 18.6569Z" fill="white"/>
<path d="M117.01 18.6571C116.968 18.2135 117.018 17.7659 117.157 17.343C117.294 16.9201 117.518 16.5313 117.813 16.2015C118.107 15.8716 118.466 15.6081 118.866 15.4278C119.266 15.2475 119.699 15.1543 120.137 15.1543C120.575 15.1543 121.008 15.2475 121.409 15.4278C121.809 15.6081 122.168 15.8716 122.462 16.2015C122.757 16.5313 122.981 16.9201 123.118 17.343C123.257 17.7659 123.306 18.2135 123.265 18.6571C123.308 19.1013 123.258 19.5495 123.12 19.9731C122.983 20.3966 122.759 20.7862 122.465 21.1166C122.17 21.4471 121.811 21.7112 121.41 21.8919C121.009 22.0726 120.576 22.166 120.137 22.166C119.699 22.166 119.266 22.0726 118.865 21.8919C118.464 21.7112 118.105 21.4471 117.81 21.1166C117.516 20.7862 117.292 20.3966 117.155 19.9731C117.017 19.5495 116.967 19.1013 117.01 18.6571ZM121.919 18.6571C121.919 17.1937 121.273 16.338 120.14 16.338C119.002 16.338 118.362 17.1937 118.362 18.6571C118.362 20.1322 119.002 20.9814 120.14 20.9814C121.273 20.9814 121.919 20.1264 121.919 18.6571Z" fill="white"/>
<path d="M125.021 15.2844H126.281V16.3569H126.379C126.544 15.9717 126.825 15.6488 127.179 15.4332C127.534 15.2176 127.946 15.12 128.358 15.1541C128.681 15.1294 129.004 15.179 129.305 15.299C129.607 15.4191 129.878 15.6067 130.099 15.8478C130.319 16.089 130.483 16.3775 130.58 16.6921C130.676 17.0066 130.701 17.3392 130.653 17.665V22.0354H129.345V17.9996C129.345 16.9147 128.881 16.3752 127.913 16.3752C127.694 16.3648 127.475 16.4027 127.272 16.4865C127.069 16.5701 126.886 16.6976 126.736 16.8601C126.585 17.0226 126.471 17.2163 126.401 17.4279C126.331 17.6395 126.307 17.864 126.33 18.086V22.0354H125.021V15.2844Z" fill="white"/>
<path d="M138.049 13.6035V15.3151H139.486V16.4373H138.049V19.9088C138.049 20.6159 138.335 20.9256 138.986 20.9256C139.153 20.925 139.32 20.9148 139.486 20.8948V22.0046C139.251 22.0474 139.012 22.0702 138.774 22.0727C137.318 22.0727 136.738 21.5514 136.738 20.2499V16.4373H135.686V15.315H136.738V13.6035H138.049Z" fill="white"/>
<path d="M141.273 12.6489H142.57V16.3692H142.673C142.848 15.9804 143.136 15.6557 143.497 15.4393C143.859 15.2229 144.277 15.1253 144.696 15.1599C145.017 15.1421 145.338 15.1966 145.636 15.3196C145.934 15.4426 146.201 15.6311 146.419 15.8714C146.638 16.1118 146.8 16.3982 146.898 16.7103C146.994 17.0224 147.023 17.3523 146.98 17.6766V22.0353H145.67V18.0053C145.67 16.927 145.176 16.3809 144.252 16.3809C144.027 16.3621 143.8 16.3936 143.589 16.4731C143.377 16.5527 143.185 16.6784 143.025 16.8414C142.867 17.0044 142.744 17.2009 142.668 17.4169C142.591 17.6331 142.562 17.8636 142.582 18.0924V22.0353H141.273V12.6489Z" fill="white"/>
<path d="M154.612 20.2124C154.433 20.8294 154.048 21.3632 153.523 21.7202C152.998 22.0772 152.366 22.2349 151.738 22.1656C151.301 22.1773 150.867 22.0921 150.466 21.9159C150.064 21.7397 149.705 21.4767 149.414 21.1452C149.122 20.8136 148.905 20.4214 148.777 19.9959C148.65 19.5704 148.615 19.1217 148.674 18.681C148.616 18.2389 148.652 17.7892 148.779 17.3624C148.906 16.9356 149.123 16.5416 149.412 16.2072C149.702 15.8727 150.06 15.6056 150.46 15.4239C150.86 15.2422 151.294 15.1501 151.732 15.1539C153.577 15.1539 154.691 16.4373 154.691 18.5572V19.0221H150.008V19.0968C149.987 19.3445 150.018 19.5939 150.098 19.8289C150.177 20.0639 150.304 20.2794 150.47 20.4614C150.637 20.6436 150.839 20.7883 151.063 20.8863C151.287 20.9843 151.53 21.0336 151.774 21.0308C152.087 21.0691 152.404 21.0117 152.685 20.866C152.966 20.7202 153.198 20.4927 153.352 20.2124H154.612ZM150.008 18.0367H153.357C153.374 17.8102 153.344 17.5826 153.269 17.3686C153.194 17.1547 153.075 16.959 152.921 16.7943C152.768 16.6296 152.582 16.4995 152.376 16.4123C152.17 16.325 151.948 16.2827 151.725 16.2879C151.499 16.285 151.274 16.3283 151.064 16.4151C150.854 16.502 150.664 16.6307 150.504 16.7937C150.344 16.9567 150.218 17.1507 150.133 17.3641C150.047 17.5776 150.005 17.8063 150.008 18.0367Z" fill="white"/>
</g>
</g>
<defs>
<clipPath id="clip0_13_566">
<rect width="177" height="60" fill="white"/>
</clipPath>
</defs>
</svg>
