<svg width="34" height="42" viewBox="0 0 34 42" fill="none" xmlns="http://www.w3.org/2000/svg">
<path d="M17.5417 40.9853C17.1511 41.3758 16.518 41.3758 16.1274 40.9853L0.571092 25.4289C0.180567 25.0384 0.180567 24.4052 0.571091 24.0147C0.961616 23.6242 1.59478 23.6242 1.9853 24.0147L17.5417 39.571C17.9322 39.9616 17.9322 40.5947 17.5417 40.9853Z" fill="white"/>
<path d="M16.1274 40.9853C15.7369 40.5947 15.7368 39.9617 16.1273 39.5712L31.6836 24.0148C32.0742 23.6243 32.7073 23.6243 33.0979 24.0148C33.4884 24.4054 33.4884 25.0385 33.0979 25.4291L17.5417 40.9853C17.1511 41.3758 16.518 41.3758 16.1274 40.9853Z" fill="white"/>
<g opacity="0.6">
<path d="M17.5416 29.9853C17.1511 30.3758 16.5179 30.3758 16.1274 29.9853L0.571031 14.429C0.180506 14.0384 0.180506 13.4053 0.57103 13.0148C0.961554 12.6242 1.59472 12.6242 1.98524 13.0148L17.5416 28.5711C17.9321 28.9616 17.9321 29.5948 17.5416 29.9853Z" fill="white"/>
<path d="M16.1274 29.9853C15.7369 29.5948 15.7367 28.9618 16.1272 28.5713L31.6836 13.0149C32.0741 12.6244 32.7073 12.6244 33.0978 13.0149C33.4883 13.4054 33.4883 14.0386 33.0978 14.4291L17.5416 29.9853C17.1511 30.3758 16.5179 30.3758 16.1274 29.9853Z" fill="white"/>
</g>
<g opacity="0.3">
<path d="M17.5416 17.9853C17.1511 18.3758 16.5179 18.3758 16.1274 17.9853L0.571031 2.42897C0.180506 2.03845 0.180506 1.40528 0.57103 1.01476C0.961554 0.624232 1.59472 0.624232 1.98524 1.01476L17.5416 16.5711C17.9321 16.9616 17.9321 17.5948 17.5416 17.9853Z" fill="white"/>
<path d="M16.1274 17.9853C15.7369 17.5948 15.7367 16.9618 16.1272 16.5713L31.6836 1.01491C32.0741 0.624383 32.7073 0.624382 33.0978 1.01491C33.4883 1.40543 33.4883 2.0386 33.0978 2.42912L17.5416 17.9853C17.1511 18.3758 16.5179 18.3758 16.1274 17.9853Z" fill="white"/>
</g>
</svg>
